<mxfile host="Electron" agent="Mozilla/5.0 (Windows NT 10.0; Win64; x64) AppleWebKit/537.36 (KHTML, like Gecko) draw.io/26.1.1 Chrome/132.0.6834.210 Electron/34.3.3 Safari/537.36" version="26.1.1">
  <diagram name="Page-1" id="LoQ24IV0PKUuOp8HXcn4">
    <mxGraphModel dx="1224" dy="1196" grid="1" gridSize="10" guides="1" tooltips="1" connect="1" arrows="1" fold="1" page="1" pageScale="1" pageWidth="850" pageHeight="1100" math="0" shadow="0">
      <root>
        <mxCell id="0" />
        <mxCell id="1" parent="0" />
        <mxCell id="j3A-prfnHzdUHuFpsvIB-1" value="High Level Architecture" style="text;html=1;align=center;verticalAlign=middle;whiteSpace=wrap;rounded=0;fontSize=30;fontStyle=1" parent="1" vertex="1">
          <mxGeometry x="850" y="10" width="360" height="50" as="geometry" />
        </mxCell>
        <mxCell id="j3A-prfnHzdUHuFpsvIB-2" value="" style="rounded=0;whiteSpace=wrap;html=1;fillColor=none;dashed=1;strokeColor=light-dark(#808080, #ededed);" parent="1" vertex="1">
          <mxGeometry x="930" y="120" width="150" height="480" as="geometry" />
        </mxCell>
        <mxCell id="j3A-prfnHzdUHuFpsvIB-3" value="Sources" style="rounded=0;whiteSpace=wrap;html=1;fillColor=default;strokeColor=none;fontSize=20;" parent="1" vertex="1">
          <mxGeometry x="952.17" y="110" width="120" height="20" as="geometry" />
        </mxCell>
        <mxCell id="j3A-prfnHzdUHuFpsvIB-4" value="" style="rounded=0;whiteSpace=wrap;html=1;fillColor=none;dashed=1;strokeColor=light-dark(#787878, #ededed);" parent="1" vertex="1">
          <mxGeometry x="1160" y="120" width="560" height="480" as="geometry" />
        </mxCell>
        <mxCell id="j3A-prfnHzdUHuFpsvIB-5" value="Data Warehouse" style="rounded=0;whiteSpace=wrap;html=1;fillColor=default;strokeColor=none;fontSize=20;" parent="1" vertex="1">
          <mxGeometry x="1287.5" y="110" width="185" height="20" as="geometry" />
        </mxCell>
        <mxCell id="j3A-prfnHzdUHuFpsvIB-6" value="" style="rounded=0;whiteSpace=wrap;html=1;fillColor=none;dashed=1;strokeColor=light-dark(#787878, #ededed);" parent="1" vertex="1">
          <mxGeometry x="1800" y="120" width="150" height="480" as="geometry" />
        </mxCell>
        <mxCell id="j3A-prfnHzdUHuFpsvIB-7" value="Consume" style="rounded=0;whiteSpace=wrap;html=1;fillColor=default;strokeColor=none;fontSize=20;" parent="1" vertex="1">
          <mxGeometry x="1815" y="110" width="120" height="20" as="geometry" />
        </mxCell>
        <mxCell id="j3A-prfnHzdUHuFpsvIB-8" value="Bronze Layer" style="rounded=0;whiteSpace=wrap;html=1;fillColor=#ffe6cc;strokeColor=#d79b00;fontSize=13;fontStyle=1" parent="1" vertex="1">
          <mxGeometry x="1180" y="140" width="160" height="20" as="geometry" />
        </mxCell>
        <mxCell id="j3A-prfnHzdUHuFpsvIB-9" value="" style="rounded=0;whiteSpace=wrap;html=1;fillColor=none;strokeColor=#d79b00;fontSize=13;fontStyle=1" parent="1" vertex="1">
          <mxGeometry x="1180" y="170" width="160" height="410" as="geometry" />
        </mxCell>
        <mxCell id="j3A-prfnHzdUHuFpsvIB-10" value="Silver Layer" style="rounded=0;whiteSpace=wrap;html=1;fillColor=#f5f5f5;strokeColor=#666666;fontSize=13;fontStyle=1;gradientColor=#b3b3b3;" parent="1" vertex="1">
          <mxGeometry x="1360" y="140" width="160" height="20" as="geometry" />
        </mxCell>
        <mxCell id="j3A-prfnHzdUHuFpsvIB-11" value="" style="rounded=0;whiteSpace=wrap;html=1;fillColor=none;strokeColor=#666666;fontSize=13;fontStyle=1;gradientColor=#b3b3b3;" parent="1" vertex="1">
          <mxGeometry x="1360" y="170" width="160" height="410" as="geometry" />
        </mxCell>
        <mxCell id="j3A-prfnHzdUHuFpsvIB-12" value="Gold Layer" style="rounded=0;whiteSpace=wrap;html=1;fillColor=#fff2cc;strokeColor=#d6b656;fontSize=13;fontStyle=1;gradientColor=#ffd966;" parent="1" vertex="1">
          <mxGeometry x="1540" y="140" width="160" height="20" as="geometry" />
        </mxCell>
        <mxCell id="j3A-prfnHzdUHuFpsvIB-13" value="" style="rounded=0;whiteSpace=wrap;html=1;fillColor=none;strokeColor=#d6b656;fontSize=13;fontStyle=1;gradientColor=#ffd966;" parent="1" vertex="1">
          <mxGeometry x="1540" y="170" width="160" height="410" as="geometry" />
        </mxCell>
        <mxCell id="j3A-prfnHzdUHuFpsvIB-14" value="&lt;b&gt;CRM&lt;/b&gt;" style="image;aspect=fixed;html=1;points=[];align=center;fontSize=12;image=img/lib/azure2/general/Folder_Blank.svg;" parent="1" vertex="1">
          <mxGeometry x="970.5" y="180" width="69" height="56.00000000000001" as="geometry" />
        </mxCell>
        <mxCell id="j3A-prfnHzdUHuFpsvIB-15" value="" style="image;aspect=fixed;html=1;points=[];align=center;fontSize=12;image=img/lib/azure2/general/File.svg;" parent="1" vertex="1">
          <mxGeometry x="1024.35" y="210" width="24.35" height="30" as="geometry" />
        </mxCell>
        <mxCell id="j3A-prfnHzdUHuFpsvIB-16" value="&lt;b&gt;ERP&lt;/b&gt;" style="image;aspect=fixed;html=1;points=[];align=center;fontSize=12;image=img/lib/azure2/general/Folder_Blank.svg;" parent="1" vertex="1">
          <mxGeometry x="970.5" y="320" width="69" height="56.00000000000001" as="geometry" />
        </mxCell>
        <mxCell id="j3A-prfnHzdUHuFpsvIB-17" value="" style="image;aspect=fixed;html=1;points=[];align=center;fontSize=12;image=img/lib/azure2/general/File.svg;" parent="1" vertex="1">
          <mxGeometry x="1024.35" y="350" width="24.35" height="30" as="geometry" />
        </mxCell>
        <mxCell id="j3A-prfnHzdUHuFpsvIB-18" value="" style="endArrow=none;html=1;rounded=0;entryX=0.867;entryY=0.818;entryDx=0;entryDy=0;entryPerimeter=0;strokeColor=light-dark(#808080, #ededed);" parent="1" edge="1">
          <mxGeometry width="50" height="50" relative="1" as="geometry">
            <mxPoint x="954.97" y="430.08" as="sourcePoint" />
            <mxPoint x="1055.0200000000002" y="430.00000000000006" as="targetPoint" />
          </mxGeometry>
        </mxCell>
        <mxCell id="j3A-prfnHzdUHuFpsvIB-19" value="&lt;b&gt;Object&lt;/b&gt; &lt;b&gt;Type: &lt;/b&gt;CSV files&lt;div&gt;&lt;br&gt;&lt;div&gt;&lt;b&gt;Interface: &lt;/b&gt;Files in Folder&lt;/div&gt;&lt;/div&gt;" style="text;html=1;align=center;verticalAlign=middle;whiteSpace=wrap;rounded=0;" parent="1" vertex="1">
          <mxGeometry x="935" y="450" width="140" height="60" as="geometry" />
        </mxCell>
        <mxCell id="j3A-prfnHzdUHuFpsvIB-20" value="&lt;font style=&quot;font-size: 10px;&quot;&gt;Raw Data&lt;/font&gt;" style="html=1;verticalLabelPosition=bottom;align=center;labelBackgroundColor=#ffffff;verticalAlign=top;strokeWidth=2;strokeColor=#d79b00;shadow=0;dashed=0;shape=mxgraph.ios7.icons.data;fillColor=#ffe6cc;" parent="1" vertex="1">
          <mxGeometry x="1234" y="200" width="52" height="50" as="geometry" />
        </mxCell>
        <mxCell id="j3A-prfnHzdUHuFpsvIB-22" value="&lt;font style=&quot;font-size: 10px;&quot;&gt;Cleaned, Standardized&lt;/font&gt;&lt;div&gt;&lt;font style=&quot;font-size: 10px;&quot;&gt;&amp;nbsp;Data&lt;/font&gt;&lt;/div&gt;" style="html=1;verticalLabelPosition=bottom;align=center;labelBackgroundColor=#ffffff;verticalAlign=top;strokeWidth=2;strokeColor=#666666;shadow=0;dashed=0;shape=mxgraph.ios7.icons.data;fillColor=#f5f5f5;gradientColor=#b3b3b3;" parent="1" vertex="1">
          <mxGeometry x="1414" y="200" width="52" height="50" as="geometry" />
        </mxCell>
        <mxCell id="j3A-prfnHzdUHuFpsvIB-23" value="&lt;font size=&quot;1&quot;&gt;Bussiness-Ready Data&lt;/font&gt;" style="html=1;verticalLabelPosition=bottom;align=center;labelBackgroundColor=#ffffff;verticalAlign=top;strokeWidth=2;strokeColor=#d6b656;shadow=0;dashed=0;shape=mxgraph.ios7.icons.data;fillColor=#fff2cc;gradientColor=#ffd966;" parent="1" vertex="1">
          <mxGeometry x="1594" y="200" width="52" height="50" as="geometry" />
        </mxCell>
        <mxCell id="j3A-prfnHzdUHuFpsvIB-24" value="" style="shape=flexArrow;endArrow=classic;html=1;rounded=0;fillColor=#b1ddf0;strokeColor=#10739e;width=24.137931034482758;endSize=7.1241379310344835;" parent="1" edge="1">
          <mxGeometry width="50" height="50" relative="1" as="geometry">
            <mxPoint x="1080" y="280" as="sourcePoint" />
            <mxPoint x="1160" y="280" as="targetPoint" />
          </mxGeometry>
        </mxCell>
        <mxCell id="j3A-prfnHzdUHuFpsvIB-25" value="" style="shape=flexArrow;endArrow=classic;html=1;rounded=0;fillColor=#b1ddf0;strokeColor=#10739e;width=13.793103448275863;endSize=8.324137931034484;entryX=-0.006;entryY=0.284;entryDx=0;entryDy=0;entryPerimeter=0;" parent="1" edge="1">
          <mxGeometry width="50" height="50" relative="1" as="geometry">
            <mxPoint x="1330" y="224.66000000000003" as="sourcePoint" />
            <mxPoint x="1383.2800000000002" y="225.07999999999993" as="targetPoint" />
          </mxGeometry>
        </mxCell>
        <mxCell id="j3A-prfnHzdUHuFpsvIB-26" value="" style="shape=flexArrow;endArrow=classic;html=1;rounded=0;fillColor=#b1ddf0;strokeColor=#10739e;width=13.793103448275863;endSize=8.324137931034484;entryX=-0.006;entryY=0.284;entryDx=0;entryDy=0;entryPerimeter=0;" parent="1" edge="1">
          <mxGeometry width="50" height="50" relative="1" as="geometry">
            <mxPoint x="1512.5" y="224.66000000000003" as="sourcePoint" />
            <mxPoint x="1565.7800000000002" y="225.07999999999993" as="targetPoint" />
          </mxGeometry>
        </mxCell>
        <mxCell id="j3A-prfnHzdUHuFpsvIB-27" value="" style="shape=flexArrow;endArrow=classic;html=1;rounded=0;fillColor=#b1ddf0;strokeColor=#10739e;width=24.137931034482758;endSize=7.1241379310344835;" parent="1" edge="1">
          <mxGeometry width="50" height="50" relative="1" as="geometry">
            <mxPoint x="1720" y="280" as="sourcePoint" />
            <mxPoint x="1800" y="280" as="targetPoint" />
          </mxGeometry>
        </mxCell>
        <mxCell id="j3A-prfnHzdUHuFpsvIB-28" value="" style="endArrow=none;html=1;rounded=0;entryX=0.867;entryY=0.818;entryDx=0;entryDy=0;entryPerimeter=0;strokeColor=#d79b00;fillColor=#ffe6cc;" parent="1" edge="1">
          <mxGeometry width="50" height="50" relative="1" as="geometry">
            <mxPoint x="1209.97" y="300.08" as="sourcePoint" />
            <mxPoint x="1310.0200000000002" y="300.00000000000006" as="targetPoint" />
          </mxGeometry>
        </mxCell>
        <mxCell id="j3A-prfnHzdUHuFpsvIB-29" value="" style="endArrow=none;html=1;rounded=0;entryX=0.867;entryY=0.818;entryDx=0;entryDy=0;entryPerimeter=0;strokeColor=#666666;fillColor=#f5f5f5;gradientColor=#b3b3b3;" parent="1" edge="1">
          <mxGeometry width="50" height="50" relative="1" as="geometry">
            <mxPoint x="1389.97" y="300.08" as="sourcePoint" />
            <mxPoint x="1490.0200000000002" y="300.00000000000006" as="targetPoint" />
          </mxGeometry>
        </mxCell>
        <mxCell id="j3A-prfnHzdUHuFpsvIB-30" value="" style="endArrow=none;html=1;rounded=0;entryX=0.867;entryY=0.818;entryDx=0;entryDy=0;entryPerimeter=0;strokeColor=#d6b656;fillColor=#fff2cc;gradientColor=#ffd966;" parent="1" edge="1">
          <mxGeometry width="50" height="50" relative="1" as="geometry">
            <mxPoint x="1569.97" y="297.74" as="sourcePoint" />
            <mxPoint x="1670.0200000000002" y="297.6600000000001" as="targetPoint" />
          </mxGeometry>
        </mxCell>
        <mxCell id="j3A-prfnHzdUHuFpsvIB-31" value="&lt;font style=&quot;font-size: 10px;&quot;&gt;&lt;b style=&quot;&quot;&gt;Object&lt;/b&gt; &lt;b style=&quot;&quot;&gt;Type: &lt;/b&gt;Tables&lt;/font&gt;&lt;div&gt;&lt;font style=&quot;font-size: 10px;&quot;&gt;&lt;br&gt;&lt;/font&gt;&lt;div style=&quot;&quot;&gt;&lt;span style=&quot;font-size: 10px;&quot;&gt;&lt;b&gt;Load:&lt;/b&gt;&lt;/span&gt;&lt;/div&gt;&lt;/div&gt;&lt;div style=&quot;&quot;&gt;&lt;ul&gt;&lt;li&gt;&lt;span style=&quot;font-size: 10px;&quot;&gt;Batch Processing&lt;/span&gt;&lt;/li&gt;&lt;li&gt;&lt;span style=&quot;font-size: 10px;&quot;&gt;Full Load&lt;/span&gt;&lt;/li&gt;&lt;li&gt;&lt;span style=&quot;font-size: 10px;&quot;&gt;Trunc &amp;amp; Insert&lt;/span&gt;&lt;/li&gt;&lt;/ul&gt;&lt;span style=&quot;font-size: 10px;&quot;&gt;&lt;b&gt;No Transformations&lt;/b&gt;&lt;/span&gt;&lt;/div&gt;&lt;div style=&quot;&quot;&gt;&lt;span style=&quot;font-size: 10px;&quot;&gt;&lt;b&gt;Data Model: &lt;/b&gt;None (as-is)&lt;/span&gt;&lt;/div&gt;" style="text;html=1;align=left;verticalAlign=top;whiteSpace=wrap;rounded=0;" parent="1" vertex="1">
          <mxGeometry x="1190" y="320" width="140" height="250" as="geometry" />
        </mxCell>
        <mxCell id="j3A-prfnHzdUHuFpsvIB-32" value="&lt;font style=&quot;font-size: 10px;&quot;&gt;&lt;b style=&quot;&quot;&gt;Object&lt;/b&gt; &lt;b style=&quot;&quot;&gt;Type: &lt;/b&gt;Tables&lt;/font&gt;&lt;div&gt;&lt;font style=&quot;font-size: 10px;&quot;&gt;&lt;br&gt;&lt;/font&gt;&lt;div&gt;&lt;b&gt;&lt;font style=&quot;font-size: 10px;&quot;&gt;Load:&lt;/font&gt;&lt;/b&gt;&lt;/div&gt;&lt;/div&gt;&lt;div&gt;&lt;ul&gt;&lt;li&gt;&lt;font style=&quot;font-size: 10px;&quot;&gt;Batch Processing&lt;/font&gt;&lt;/li&gt;&lt;li&gt;&lt;font style=&quot;font-size: 10px;&quot;&gt;Full Load&lt;/font&gt;&lt;/li&gt;&lt;li&gt;&lt;font style=&quot;font-size: 10px;&quot;&gt;Truncate &amp;amp; Insert&lt;/font&gt;&lt;/li&gt;&lt;/ul&gt;&lt;span style=&quot;font-size: 10px;&quot;&gt;&lt;b&gt;Transformations:&lt;/b&gt;&lt;/span&gt;&lt;/div&gt;&lt;div&gt;&lt;ul&gt;&lt;li&gt;&lt;span style=&quot;font-size: 10px;&quot;&gt;Data Cleansing&lt;/span&gt;&lt;/li&gt;&lt;li&gt;&lt;span style=&quot;font-size: 10px;&quot;&gt;Data Standardization&lt;/span&gt;&lt;/li&gt;&lt;li&gt;&lt;span style=&quot;font-size: 10px;&quot;&gt;Data Normalization&lt;/span&gt;&lt;/li&gt;&lt;li&gt;&lt;span style=&quot;font-size: 10px;&quot;&gt;Derived Columns&lt;/span&gt;&lt;/li&gt;&lt;li&gt;&lt;span style=&quot;font-size: 10px;&quot;&gt;Data Enrichment&lt;/span&gt;&lt;/li&gt;&lt;/ul&gt;&lt;span style=&quot;font-size: 10px;&quot;&gt;&lt;b&gt;Data Model:&lt;/b&gt;&amp;nbsp;None (as-is)&lt;/span&gt;&lt;/div&gt;" style="text;html=1;align=left;verticalAlign=top;whiteSpace=wrap;rounded=0;" parent="1" vertex="1">
          <mxGeometry x="1367.5" y="320" width="145" height="250" as="geometry" />
        </mxCell>
        <mxCell id="j3A-prfnHzdUHuFpsvIB-33" value="&lt;font style=&quot;font-size: 10px;&quot;&gt;&lt;b style=&quot;&quot;&gt;Object&lt;/b&gt; &lt;b style=&quot;&quot;&gt;Type: &lt;/b&gt;Views&lt;/font&gt;&lt;div&gt;&lt;font style=&quot;font-size: 10px;&quot;&gt;&lt;br&gt;&lt;/font&gt;&lt;div&gt;&lt;span style=&quot;font-size: 10px;&quot;&gt;&lt;b&gt;No Load&lt;/b&gt;&lt;/span&gt;&lt;/div&gt;&lt;/div&gt;&lt;div&gt;&lt;span style=&quot;font-size: 10px;&quot;&gt;&lt;b&gt;&lt;br&gt;&lt;/b&gt;&lt;/span&gt;&lt;/div&gt;&lt;div style=&quot;&quot;&gt;&lt;span style=&quot;font-size: 10px;&quot;&gt;&lt;b&gt;Transformations:&lt;/b&gt;&lt;/span&gt;&lt;/div&gt;&lt;div style=&quot;&quot;&gt;&lt;ul&gt;&lt;li&gt;&lt;span style=&quot;font-size: 10px;&quot;&gt;Data integrations&lt;/span&gt;&lt;/li&gt;&lt;li&gt;&lt;span style=&quot;font-size: 10px;&quot;&gt;Aggregations&lt;/span&gt;&lt;/li&gt;&lt;li&gt;&lt;span style=&quot;font-size: 10px;&quot;&gt;Business Logics&lt;/span&gt;&lt;/li&gt;&lt;/ul&gt;&lt;div&gt;&lt;span style=&quot;font-size: 10px;&quot;&gt;&lt;b&gt;Data Model:&lt;/b&gt;&lt;/span&gt;&lt;/div&gt;&lt;div&gt;&lt;ul&gt;&lt;li&gt;&lt;span style=&quot;font-size: 10px;&quot;&gt;Star Schema&lt;/span&gt;&lt;/li&gt;&lt;li&gt;&lt;span style=&quot;font-size: 10px;&quot;&gt;Flat Table&lt;/span&gt;&lt;/li&gt;&lt;li&gt;&lt;span style=&quot;font-size: 10px;&quot;&gt;Aggregate Table&lt;/span&gt;&lt;/li&gt;&lt;/ul&gt;&lt;/div&gt;&lt;/div&gt;" style="text;html=1;align=left;verticalAlign=top;whiteSpace=wrap;rounded=0;" parent="1" vertex="1">
          <mxGeometry x="1551.25" y="320" width="137.5" height="250" as="geometry" />
        </mxCell>
        <mxCell id="j3A-prfnHzdUHuFpsvIB-34" value="BI &amp;amp; Reporting" style="image;aspect=fixed;html=1;points=[];align=center;fontSize=12;image=img/lib/azure2/analytics/Power_BI_Embedded.svg;" parent="1" vertex="1">
          <mxGeometry x="1849.5" y="182" width="51" height="68" as="geometry" />
        </mxCell>
        <mxCell id="j3A-prfnHzdUHuFpsvIB-35" value="" style="sketch=0;html=1;aspect=fixed;strokeColor=none;shadow=0;fillColor=#3B8DF1;verticalAlign=top;labelPosition=center;verticalLabelPosition=bottom;shape=mxgraph.gcp2.big_query" parent="1" vertex="1">
          <mxGeometry x="1849.02" y="320" width="51.48" height="52" as="geometry" />
        </mxCell>
      </root>
    </mxGraphModel>
  </diagram>
</mxfile>
